<mxfile host="app.diagrams.net" modified="2022-01-28T13:38:06.464Z" agent="5.0 (Windows NT 10.0; Win64; x64) AppleWebKit/537.36 (KHTML, like Gecko) Chrome/97.0.4692.99 Safari/537.36" etag="QN282tZwsA1OTR5KegWD" version="15.9.6" type="github">
  <diagram id="S1XTpG-i0rMrR9OhT2Tz" name="Page-1">
    <mxGraphModel dx="4116" dy="2035" grid="1" gridSize="10" guides="1" tooltips="1" connect="1" arrows="1" fold="1" page="1" pageScale="1" pageWidth="827" pageHeight="1169" math="0" shadow="0">
      <root>
        <mxCell id="0" />
        <mxCell id="1" parent="0" />
        <mxCell id="KfWzElstJxkfdaih9qhX-1" value="&lt;&lt;interface&gt;&gt;&#xa;AlgoDiffusion" style="swimlane;fontStyle=1;align=center;verticalAlign=top;childLayout=stackLayout;horizontal=1;startSize=40;horizontalStack=0;resizeParent=1;resizeParentMax=0;resizeLast=0;collapsible=1;marginBottom=0;" vertex="1" parent="1">
          <mxGeometry x="-1950" y="-290" width="160" height="104" as="geometry" />
        </mxCell>
        <mxCell id="KfWzElstJxkfdaih9qhX-2" value="" style="line;strokeWidth=1;fillColor=none;align=left;verticalAlign=middle;spacingTop=-1;spacingLeft=3;spacingRight=3;rotatable=0;labelPosition=right;points=[];portConstraint=eastwest;" vertex="1" parent="KfWzElstJxkfdaih9qhX-1">
          <mxGeometry y="40" width="160" height="8" as="geometry" />
        </mxCell>
        <mxCell id="KfWzElstJxkfdaih9qhX-3" value="configure()&#xa;execute()" style="text;strokeColor=none;fillColor=none;align=left;verticalAlign=top;spacingLeft=4;spacingRight=4;overflow=hidden;rotatable=0;points=[[0,0.5],[1,0.5]];portConstraint=eastwest;" vertex="1" parent="KfWzElstJxkfdaih9qhX-1">
          <mxGeometry y="48" width="160" height="56" as="geometry" />
        </mxCell>
        <mxCell id="KfWzElstJxkfdaih9qhX-4" value="&lt;&lt;interface&gt;&gt;&#xa;Capteur" style="swimlane;fontStyle=1;align=center;verticalAlign=top;childLayout=stackLayout;horizontal=1;startSize=40;horizontalStack=0;resizeParent=1;resizeParentMax=0;resizeLast=0;collapsible=1;marginBottom=0;" vertex="1" parent="1">
          <mxGeometry x="-1660" y="-210" width="200" height="130" as="geometry" />
        </mxCell>
        <mxCell id="KfWzElstJxkfdaih9qhX-5" value="" style="line;strokeWidth=1;fillColor=none;align=left;verticalAlign=middle;spacingTop=-1;spacingLeft=3;spacingRight=3;rotatable=0;labelPosition=right;points=[];portConstraint=eastwest;" vertex="1" parent="KfWzElstJxkfdaih9qhX-4">
          <mxGeometry y="40" width="200" height="8" as="geometry" />
        </mxCell>
        <mxCell id="KfWzElstJxkfdaih9qhX-6" value="attach(o:ObserverDeCapteur)&#xa;getValue():Integer&#xa;tick()&#xa;NotifyObservateur()" style="text;strokeColor=none;fillColor=none;align=left;verticalAlign=top;spacingLeft=4;spacingRight=4;overflow=hidden;rotatable=0;points=[[0,0.5],[1,0.5]];portConstraint=eastwest;" vertex="1" parent="KfWzElstJxkfdaih9qhX-4">
          <mxGeometry y="48" width="200" height="82" as="geometry" />
        </mxCell>
        <mxCell id="KfWzElstJxkfdaih9qhX-7" value="&lt;&lt;interface&gt;&gt;&#xa;ObserveurDeCapteur" style="swimlane;fontStyle=1;align=center;verticalAlign=top;childLayout=stackLayout;horizontal=1;startSize=40;horizontalStack=0;resizeParent=1;resizeParentMax=0;resizeLast=0;collapsible=1;marginBottom=0;" vertex="1" parent="1">
          <mxGeometry x="-1203" y="-250" width="200" height="80" as="geometry" />
        </mxCell>
        <mxCell id="KfWzElstJxkfdaih9qhX-8" value="" style="line;strokeWidth=1;fillColor=none;align=left;verticalAlign=middle;spacingTop=-1;spacingLeft=3;spacingRight=3;rotatable=0;labelPosition=right;points=[];portConstraint=eastwest;" vertex="1" parent="KfWzElstJxkfdaih9qhX-7">
          <mxGeometry y="40" width="200" height="8" as="geometry" />
        </mxCell>
        <mxCell id="KfWzElstJxkfdaih9qhX-9" value="update(s:Capteur)" style="text;strokeColor=none;fillColor=none;align=left;verticalAlign=top;spacingLeft=4;spacingRight=4;overflow=hidden;rotatable=0;points=[[0,0.5],[1,0.5]];portConstraint=eastwest;" vertex="1" parent="KfWzElstJxkfdaih9qhX-7">
          <mxGeometry y="48" width="200" height="32" as="geometry" />
        </mxCell>
        <mxCell id="KfWzElstJxkfdaih9qhX-10" value="&lt;&lt;Interface&gt;&gt;&#xa;ObserverdeCapteurAsync" style="swimlane;fontStyle=1;align=center;verticalAlign=top;childLayout=stackLayout;horizontal=1;startSize=40;horizontalStack=0;resizeParent=1;resizeParentMax=0;resizeLast=0;collapsible=1;marginBottom=0;" vertex="1" parent="1">
          <mxGeometry x="-1400" y="-56" width="210" height="70" as="geometry" />
        </mxCell>
        <mxCell id="KfWzElstJxkfdaih9qhX-11" value="update(s:Capteur) : Future" style="text;strokeColor=none;fillColor=none;align=left;verticalAlign=top;spacingLeft=4;spacingRight=4;overflow=hidden;rotatable=0;points=[[0,0.5],[1,0.5]];portConstraint=eastwest;" vertex="1" parent="KfWzElstJxkfdaih9qhX-10">
          <mxGeometry y="40" width="210" height="30" as="geometry" />
        </mxCell>
        <mxCell id="KfWzElstJxkfdaih9qhX-12" value="" style="line;strokeWidth=1;fillColor=none;align=left;verticalAlign=middle;spacingTop=-1;spacingLeft=3;spacingRight=3;rotatable=0;labelPosition=right;points=[];portConstraint=eastwest;" vertex="1" parent="KfWzElstJxkfdaih9qhX-10">
          <mxGeometry y="70" width="210" as="geometry" />
        </mxCell>
        <mxCell id="KfWzElstJxkfdaih9qhX-13" value="&lt;font style=&quot;font-size: 18px&quot;&gt;1.1&lt;/font&gt;" style="text;html=1;align=center;verticalAlign=middle;resizable=0;points=[];autosize=1;strokeColor=none;fillColor=none;fontSize=14;" vertex="1" parent="1">
          <mxGeometry x="-1790" y="-260" width="40" height="20" as="geometry" />
        </mxCell>
        <mxCell id="KfWzElstJxkfdaih9qhX-14" value="&lt;&lt;Interface&gt;&gt;&#xa;CapteurAsync" style="swimlane;fontStyle=1;align=center;verticalAlign=top;childLayout=stackLayout;horizontal=1;startSize=40;horizontalStack=0;resizeParent=1;resizeParentMax=0;resizeLast=0;collapsible=1;marginBottom=0;" vertex="1" parent="1">
          <mxGeometry x="-2020" y="-56" width="260" height="66" as="geometry" />
        </mxCell>
        <mxCell id="KfWzElstJxkfdaih9qhX-15" value="GetValue(obs : ObserverDeCapteur) : FUTURE" style="text;strokeColor=none;fillColor=none;align=left;verticalAlign=top;spacingLeft=4;spacingRight=4;overflow=hidden;rotatable=0;points=[[0,0.5],[1,0.5]];portConstraint=eastwest;" vertex="1" parent="KfWzElstJxkfdaih9qhX-14">
          <mxGeometry y="40" width="260" height="26" as="geometry" />
        </mxCell>
        <mxCell id="KfWzElstJxkfdaih9qhX-16" value="" style="line;strokeWidth=1;fillColor=none;align=left;verticalAlign=middle;spacingTop=-1;spacingLeft=3;spacingRight=3;rotatable=0;labelPosition=right;points=[];portConstraint=eastwest;" vertex="1" parent="KfWzElstJxkfdaih9qhX-14">
          <mxGeometry y="66" width="260" as="geometry" />
        </mxCell>
        <mxCell id="KfWzElstJxkfdaih9qhX-17" value="&lt;font style=&quot;font-size: 19px&quot;&gt;1.1&lt;/font&gt;" style="text;html=1;align=center;verticalAlign=middle;resizable=0;points=[];autosize=1;strokeColor=none;fillColor=none;fontSize=14;" vertex="1" parent="1">
          <mxGeometry x="-1090" y="-160" width="40" height="20" as="geometry" />
        </mxCell>
        <mxCell id="KfWzElstJxkfdaih9qhX-18" value="&lt;font style=&quot;font-size: 27px&quot;&gt;*&lt;/font&gt;" style="text;html=1;align=center;verticalAlign=middle;resizable=0;points=[];autosize=1;strokeColor=none;fillColor=none;fontSize=16;" vertex="1" parent="1">
          <mxGeometry x="-1340" y="-80" width="30" height="30" as="geometry" />
        </mxCell>
        <mxCell id="KfWzElstJxkfdaih9qhX-19" value="1.1" style="text;html=1;align=center;verticalAlign=middle;resizable=0;points=[];autosize=1;strokeColor=none;fillColor=none;fontSize=27;" vertex="1" parent="1">
          <mxGeometry x="-1465" y="-170" width="50" height="40" as="geometry" />
        </mxCell>
        <mxCell id="KfWzElstJxkfdaih9qhX-20" value="1.1" style="text;html=1;align=center;verticalAlign=middle;resizable=0;points=[];autosize=1;strokeColor=none;fillColor=none;fontSize=27;" vertex="1" parent="1">
          <mxGeometry x="-1180" y="-30" width="50" height="40" as="geometry" />
        </mxCell>
        <mxCell id="KfWzElstJxkfdaih9qhX-21" value="1.1" style="text;html=1;align=center;verticalAlign=middle;resizable=0;points=[];autosize=1;strokeColor=none;fillColor=none;fontSize=27;" vertex="1" parent="1">
          <mxGeometry x="-1705" y="-130" width="50" height="40" as="geometry" />
        </mxCell>
        <mxCell id="KfWzElstJxkfdaih9qhX-22" value="*" style="text;html=1;align=center;verticalAlign=middle;resizable=0;points=[];autosize=1;strokeColor=none;fillColor=none;fontSize=27;" vertex="1" parent="1">
          <mxGeometry x="-1885" y="-85" width="30" height="40" as="geometry" />
        </mxCell>
        <mxCell id="KfWzElstJxkfdaih9qhX-23" value="1.1" style="text;html=1;align=center;verticalAlign=middle;resizable=0;points=[];autosize=1;strokeColor=none;fillColor=none;fontSize=27;" vertex="1" parent="1">
          <mxGeometry x="-1705" y="-190" width="50" height="40" as="geometry" />
        </mxCell>
        <mxCell id="KfWzElstJxkfdaih9qhX-24" value="" style="endArrow=none;html=1;rounded=0;fontSize=27;exitX=1.01;exitY=-0.026;exitDx=0;exitDy=0;exitPerimeter=0;entryX=0.465;entryY=1.066;entryDx=0;entryDy=0;entryPerimeter=0;" edge="1" parent="1" source="KfWzElstJxkfdaih9qhX-11" target="KfWzElstJxkfdaih9qhX-9">
          <mxGeometry width="50" height="50" relative="1" as="geometry">
            <mxPoint x="-450" y="140" as="sourcePoint" />
            <mxPoint x="-400" y="90" as="targetPoint" />
          </mxGeometry>
        </mxCell>
        <mxCell id="KfWzElstJxkfdaih9qhX-25" value="" style="endArrow=none;html=1;rounded=0;fontSize=27;exitX=0.25;exitY=0;exitDx=0;exitDy=0;entryX=1;entryY=0.5;entryDx=0;entryDy=0;" edge="1" parent="1" source="KfWzElstJxkfdaih9qhX-10" target="KfWzElstJxkfdaih9qhX-6">
          <mxGeometry width="50" height="50" relative="1" as="geometry">
            <mxPoint x="-930" y="140" as="sourcePoint" />
            <mxPoint x="-880" y="90" as="targetPoint" />
          </mxGeometry>
        </mxCell>
        <mxCell id="KfWzElstJxkfdaih9qhX-26" value="" style="endArrow=none;html=1;rounded=0;fontSize=27;exitX=0.993;exitY=0.025;exitDx=0;exitDy=0;exitPerimeter=0;entryX=0.849;entryY=-0.074;entryDx=0;entryDy=0;entryPerimeter=0;" edge="1" parent="1" source="KfWzElstJxkfdaih9qhX-3" target="KfWzElstJxkfdaih9qhX-23">
          <mxGeometry width="50" height="50" relative="1" as="geometry">
            <mxPoint x="-930" y="140" as="sourcePoint" />
            <mxPoint x="-880" y="90" as="targetPoint" />
          </mxGeometry>
        </mxCell>
        <mxCell id="KfWzElstJxkfdaih9qhX-27" value="" style="endArrow=none;html=1;rounded=0;fontSize=27;entryX=0.976;entryY=-0.106;entryDx=0;entryDy=0;entryPerimeter=0;" edge="1" parent="1" target="KfWzElstJxkfdaih9qhX-21">
          <mxGeometry width="50" height="50" relative="1" as="geometry">
            <mxPoint x="-1849.9999999999995" y="-60" as="sourcePoint" />
            <mxPoint x="-880" y="90" as="targetPoint" />
          </mxGeometry>
        </mxCell>
        <mxCell id="KfWzElstJxkfdaih9qhX-28" value="Canal" style="swimlane;fontStyle=1;align=center;verticalAlign=top;childLayout=stackLayout;horizontal=1;startSize=26;horizontalStack=0;resizeParent=1;resizeParentMax=0;resizeLast=0;collapsible=1;marginBottom=0;" vertex="1" parent="1">
          <mxGeometry x="-1740" y="20" width="290" height="90" as="geometry" />
        </mxCell>
        <mxCell id="KfWzElstJxkfdaih9qhX-29" value="" style="line;strokeWidth=1;fillColor=none;align=left;verticalAlign=middle;spacingTop=-1;spacingLeft=3;spacingRight=3;rotatable=0;labelPosition=right;points=[];portConstraint=eastwest;" vertex="1" parent="KfWzElstJxkfdaih9qhX-28">
          <mxGeometry y="26" width="290" height="4" as="geometry" />
        </mxCell>
        <mxCell id="KfWzElstJxkfdaih9qhX-30" value="update(s:Capteur)&#xa;&#xa;GetValue(obs : ObserverDeCapteur) : FUTURE&#xa;" style="text;strokeColor=none;fillColor=none;align=left;verticalAlign=top;spacingLeft=4;spacingRight=4;overflow=hidden;rotatable=0;points=[[0,0.5],[1,0.5]];portConstraint=eastwest;" vertex="1" parent="KfWzElstJxkfdaih9qhX-28">
          <mxGeometry y="30" width="290" height="60" as="geometry" />
        </mxCell>
        <mxCell id="KfWzElstJxkfdaih9qhX-31" value="" style="endArrow=block;dashed=1;endFill=0;endSize=12;html=1;exitX=1;exitY=0.5;exitDx=0;exitDy=0;" edge="1" parent="1" source="KfWzElstJxkfdaih9qhX-30" target="KfWzElstJxkfdaih9qhX-11">
          <mxGeometry width="160" relative="1" as="geometry">
            <mxPoint x="-870" y="712.5" as="sourcePoint" />
            <mxPoint x="-993.8199999999997" y="599.8960000000002" as="targetPoint" />
            <Array as="points" />
          </mxGeometry>
        </mxCell>
        <mxCell id="KfWzElstJxkfdaih9qhX-32" value="" style="endArrow=block;dashed=1;endFill=0;endSize=12;html=1;exitX=0;exitY=0.5;exitDx=0;exitDy=0;entryX=0.538;entryY=1.069;entryDx=0;entryDy=0;entryPerimeter=0;" edge="1" parent="1" source="KfWzElstJxkfdaih9qhX-30" target="KfWzElstJxkfdaih9qhX-15">
          <mxGeometry width="160" relative="1" as="geometry">
            <mxPoint x="-1409.9999999999995" y="120" as="sourcePoint" />
            <mxPoint x="-1301.8918918918912" y="24" as="targetPoint" />
            <Array as="points" />
          </mxGeometry>
        </mxCell>
      </root>
    </mxGraphModel>
  </diagram>
</mxfile>
